<?xml version="1.0" encoding="UTF-8"?>
<!-- ctrl-p.art screen archive — DOTS — 300x400mm — xTool engraving file -->
<svg width="300mm" height="400mm" viewBox="0 0 300 400" xmlns="http://www.w3.org/2000/svg">
  <circle cx="30.00" cy="28.57" r="8.00" fill="#000"/>
  <circle cx="90.00" cy="28.57" r="8.42" fill="#000"/>
  <circle cx="150.00" cy="28.57" r="8.85" fill="#000"/>
  <circle cx="210.00" cy="28.57" r="9.27" fill="#000"/>
  <circle cx="270.00" cy="28.57" r="9.70" fill="#000"/>
  <circle cx="30.00" cy="85.71" r="10.12" fill="#000"/>
  <circle cx="90.00" cy="85.71" r="10.55" fill="#000"/>
  <circle cx="150.00" cy="85.71" r="10.97" fill="#000"/>
  <circle cx="210.00" cy="85.71" r="11.40" fill="#000"/>
  <circle cx="270.00" cy="85.71" r="11.82" fill="#000"/>
  <circle cx="30.00" cy="142.86" r="12.24" fill="#000"/>
  <circle cx="90.00" cy="142.86" r="12.67" fill="#000"/>
  <circle cx="150.00" cy="142.86" r="13.09" fill="#000"/>
  <circle cx="210.00" cy="142.86" r="13.52" fill="#000"/>
  <circle cx="270.00" cy="142.86" r="13.94" fill="#000"/>
  <circle cx="30.00" cy="200.00" r="14.37" fill="#000"/>
  <circle cx="90.00" cy="200.00" r="14.79" fill="#000"/>
  <circle cx="150.00" cy="200.00" r="15.22" fill="#000"/>
  <circle cx="210.00" cy="200.00" r="15.64" fill="#000"/>
  <circle cx="270.00" cy="200.00" r="16.07" fill="#000"/>
  <circle cx="30.00" cy="257.14" r="16.49" fill="#000"/>
  <circle cx="90.00" cy="257.14" r="16.91" fill="#000"/>
  <circle cx="150.00" cy="257.14" r="17.34" fill="#000"/>
  <circle cx="210.00" cy="257.14" r="17.76" fill="#000"/>
  <circle cx="270.00" cy="257.14" r="18.19" fill="#000"/>
  <circle cx="30.00" cy="314.29" r="18.61" fill="#000"/>
  <circle cx="90.00" cy="314.29" r="19.04" fill="#000"/>
  <circle cx="150.00" cy="314.29" r="19.46" fill="#000"/>
  <circle cx="210.00" cy="314.29" r="19.89" fill="#000"/>
  <circle cx="270.00" cy="314.29" r="20.31" fill="#000"/>
  <circle cx="30.00" cy="371.43" r="20.73" fill="#000"/>
  <circle cx="90.00" cy="371.43" r="21.16" fill="#000"/>
  <circle cx="150.00" cy="371.43" r="21.58" fill="#000"/>
  <circle cx="210.00" cy="371.43" r="22.01" fill="#000"/>
  <circle cx="270.00" cy="371.43" r="22.43" fill="#000"/>
</svg>