<?xml version="1.0" encoding="UTF-8"?>
<!-- ctrl-p.art screen archive — WAVE — 300x400mm — xTool engraving file -->
<svg width="300mm" height="400mm" viewBox="0 0 300 400" xmlns="http://www.w3.org/2000/svg">
  <path d="M0.00,22.22 L3.80,24.12 L7.59,25.98 L11.39,27.73 L15.19,29.35 L18.99,30.79 L22.78,32.01 L26.58,32.99 L30.38,33.69 L34.18,34.11 L37.97,34.22 L41.77,34.03 L45.57,33.54 L49.37,32.77 L53.16,31.73 L56.96,30.45 L60.76,28.96 L64.56,27.31 L68.35,25.52 L72.15,23.65 L75.95,21.75 L79.75,19.85 L83.54,18.02 L87.34,16.29 L91.14,14.71 L94.94,13.33 L98.73,12.16 L102.53,11.25 L106.33,10.62 L110.13,10.28 L113.92,10.24 L117.72,10.51 L121.52,11.07 L125.32,11.91 L129.11,13.01 L132.91,14.35 L136.71,15.88 L140.51,17.57 L144.30,19.39 L148.10,21.27 L151.90,23.18 L155.70,25.06 L159.49,26.87 L163.29,28.56 L167.09,30.10 L170.89,31.43 L174.68,32.53 L178.48,33.38 L182.28,33.94 L186.08,34.20 L189.87,34.16 L193.67,33.82 L197.47,33.19 L201.27,32.28 L205.06,31.12 L208.86,29.73 L212.66,28.15 L216.46,26.43 L220.25,24.59 L224.05,22.70 L227.85,20.79 L231.65,18.92 L235.44,17.14 L239.24,15.48 L243.04,13.99 L246.84,12.71 L250.63,11.67 L254.43,10.90 L258.23,10.41 L262.03,10.22 L265.82,10.34 L269.62,10.75 L273.42,11.46 L277.22,12.43 L281.01,13.65 L284.81,15.09 L288.61,16.71 L292.41,18.47 L296.20,20.32 L300.00,22.22" fill="none" stroke="#000" stroke-width="17.78" stroke-linecap="butt"/>
  <path d="M0.00,75.27 L3.80,76.49 L7.59,77.46 L11.39,78.15 L15.19,78.56 L18.99,78.66 L22.78,78.46 L26.58,77.97 L30.38,77.19 L34.18,76.14 L37.97,74.85 L41.77,73.36 L45.57,71.70 L49.37,69.91 L53.16,68.04 L56.96,66.13 L60.76,64.24 L64.56,62.41 L68.35,60.69 L72.15,59.11 L75.95,57.73 L79.75,56.58 L83.54,55.68 L87.34,55.05 L91.14,54.72 L94.94,54.69 L98.73,54.96 L102.53,55.53 L106.33,56.38 L110.13,57.49 L113.92,58.83 L117.72,60.37 L121.52,62.07 L125.32,63.88 L129.11,65.77 L132.91,67.68 L136.71,69.56 L140.51,71.37 L144.30,73.06 L148.10,74.58 L151.90,75.91 L155.70,77.01 L159.49,77.84 L163.29,78.39 L167.09,78.65 L170.89,78.60 L174.68,78.25 L178.48,77.61 L182.28,76.70 L186.08,75.53 L189.87,74.13 L193.67,72.55 L197.47,70.82 L201.27,68.98 L205.06,67.09 L208.86,65.18 L212.66,63.32 L216.46,61.53 L220.25,59.88 L224.05,58.40 L227.85,57.12 L231.65,56.09 L235.44,55.33 L239.24,54.85 L243.04,54.67 L246.84,54.79 L250.63,55.21 L254.43,55.92 L258.23,56.91 L262.03,58.14 L265.82,59.58 L269.62,61.20 L273.42,62.97 L277.22,64.82 L281.01,66.72 L284.81,68.62 L288.61,70.47 L292.41,72.23 L296.20,73.84 L300.00,75.27" fill="none" stroke="#000" stroke-width="17.78" stroke-linecap="butt"/>
  <path d="M0.00,123.11 L3.80,122.90 L7.59,122.39 L11.39,121.61 L15.19,120.55 L18.99,119.26 L22.78,117.76 L26.58,116.09 L30.38,114.30 L34.18,112.43 L37.97,110.52 L41.77,108.63 L45.57,106.80 L49.37,105.08 L53.16,103.52 L56.96,102.14 L60.76,100.99 L64.56,100.10 L68.35,99.48 L72.15,99.16 L75.95,99.14 L79.75,99.42 L83.54,100.00 L87.34,100.86 L91.14,101.97 L94.94,103.32 L98.73,104.87 L102.53,106.57 L106.33,108.38 L110.13,110.27 L113.92,112.18 L117.72,114.06 L121.52,115.86 L125.32,117.55 L129.11,119.07 L132.91,120.39 L136.71,121.48 L140.51,122.31 L144.30,122.85 L148.10,123.10 L151.90,123.04 L155.70,122.68 L159.49,122.03 L163.29,121.11 L167.09,119.93 L170.89,118.53 L174.68,116.94 L178.48,115.21 L182.28,113.37 L186.08,111.48 L189.87,109.57 L193.67,107.71 L197.47,105.93 L201.27,104.28 L205.06,102.80 L208.86,101.54 L212.66,100.51 L216.46,99.75 L220.25,99.28 L224.05,99.11 L227.85,99.24 L231.65,99.67 L235.44,100.39 L239.24,101.38 L243.04,102.62 L246.84,104.07 L250.63,105.70 L254.43,107.46 L258.23,109.32 L262.03,111.22 L265.82,113.12 L269.62,114.97 L273.42,116.72 L277.22,118.33 L281.01,119.76 L284.81,120.97 L288.61,121.93 L292.41,122.61 L296.20,123.01 L300.00,123.11" fill="none" stroke="#000" stroke-width="17.78" stroke-linecap="butt"/>
  <path d="M0.00,163.66 L3.80,162.16 L7.59,160.49 L11.39,158.69 L15.19,156.82 L18.99,154.91 L22.78,153.02 L26.58,151.20 L30.38,149.48 L34.18,147.92 L37.97,146.55 L41.77,145.41 L45.57,144.52 L49.37,143.91 L53.16,143.60 L56.96,143.59 L60.76,143.88 L64.56,144.46 L68.35,145.33 L72.15,146.45 L75.95,147.81 L79.75,149.36 L83.54,151.06 L87.34,152.88 L91.14,154.77 L94.94,156.68 L98.73,158.55 L102.53,160.36 L106.33,162.04 L110.13,163.56 L113.92,164.87 L117.72,165.95 L121.52,166.77 L125.32,167.30 L129.11,167.54 L132.91,167.48 L136.71,167.11 L140.51,166.46 L144.30,165.52 L148.10,164.34 L151.90,162.93 L155.70,161.34 L159.49,159.60 L163.29,157.76 L167.09,155.86 L170.89,153.96 L174.68,152.10 L178.48,150.32 L182.28,148.68 L186.08,147.21 L189.87,145.95 L193.67,144.93 L197.47,144.18 L201.27,143.72 L205.06,143.56 L208.86,143.70 L212.66,144.14 L216.46,144.86 L220.25,145.86 L224.05,147.10 L227.85,148.56 L231.65,150.19 L235.44,151.96 L239.24,153.82 L243.04,155.72 L246.84,157.62 L250.63,159.47 L254.43,161.22 L258.23,162.82 L262.03,164.24 L265.82,165.44 L269.62,166.40 L273.42,167.07 L277.22,167.46 L281.01,167.55 L284.81,167.33 L288.61,166.82 L292.41,166.02 L296.20,164.96 L300.00,163.66" fill="none" stroke="#000" stroke-width="17.78" stroke-linecap="butt"/>
  <path d="M0.00,199.30 L3.80,197.41 L7.59,195.59 L11.39,193.88 L15.19,192.32 L18.99,190.96 L22.78,189.82 L26.58,188.94 L30.38,188.34 L34.18,188.04 L37.97,188.04 L41.77,188.34 L45.57,188.93 L49.37,189.80 L53.16,190.94 L56.96,192.30 L60.76,193.85 L64.56,195.56 L68.35,197.38 L72.15,199.27 L75.95,201.18 L79.75,203.05 L83.54,204.85 L87.34,206.53 L91.14,208.04 L94.94,209.35 L98.73,210.42 L102.53,211.23 L106.33,211.76 L110.13,211.99 L113.92,211.92 L117.72,211.54 L121.52,210.88 L125.32,209.94 L129.11,208.74 L132.91,207.33 L136.71,205.74 L140.51,203.99 L144.30,202.15 L148.10,200.25 L151.90,198.35 L155.70,196.49 L159.49,194.71 L163.29,193.08 L167.09,191.61 L170.89,190.36 L174.68,189.35 L178.48,188.61 L182.28,188.15 L186.08,188.00 L189.87,188.15 L193.67,188.60 L197.47,189.33 L201.27,190.34 L205.06,191.59 L208.86,193.05 L212.66,194.69 L216.46,196.46 L220.25,198.32 L224.05,200.22 L227.85,202.12 L231.65,203.97 L235.44,205.71 L239.24,207.31 L243.04,208.72 L246.84,209.92 L250.63,210.86 L254.43,211.53 L258.23,211.91 L262.03,211.99 L265.82,211.77 L269.62,211.24 L273.42,210.44 L277.22,209.37 L281.01,208.06 L284.81,206.55 L288.61,204.88 L292.41,203.08 L296.20,201.21 L300.00,199.30" fill="none" stroke="#000" stroke-width="17.78" stroke-linecap="butt"/>
  <path d="M0.00,235.36 L3.80,234.24 L7.59,233.37 L11.39,232.77 L15.19,232.48 L18.99,232.49 L22.78,232.79 L26.58,233.40 L30.38,234.28 L34.18,235.42 L37.97,236.78 L41.77,238.34 L45.57,240.06 L49.37,241.88 L53.16,243.77 L56.96,245.68 L60.76,247.55 L64.56,249.35 L68.35,251.02 L72.15,252.53 L75.95,253.83 L79.75,254.90 L83.54,255.70 L87.34,256.22 L91.14,256.44 L94.94,256.35 L98.73,255.97 L102.53,255.30 L106.33,254.35 L110.13,253.15 L113.92,251.73 L117.72,250.13 L121.52,248.39 L125.32,246.54 L129.11,244.64 L132.91,242.74 L136.71,240.88 L140.51,239.11 L144.30,237.47 L148.10,236.01 L151.90,234.77 L155.70,233.77 L159.49,233.03 L163.29,232.59 L167.09,232.44 L170.89,232.60 L174.68,233.06 L178.48,233.80 L182.28,234.82 L186.08,236.07 L189.87,237.54 L193.67,239.18 L197.47,240.96 L201.27,242.82 L205.06,244.72 L208.86,246.62 L212.66,248.46 L216.46,250.20 L220.25,251.80 L224.05,253.21 L227.85,254.40 L231.65,255.33 L235.44,255.99 L239.24,256.36 L243.04,256.43 L246.84,256.20 L250.63,255.67 L254.43,254.86 L258.23,253.78 L262.03,252.47 L265.82,250.95 L269.62,249.27 L273.42,247.47 L277.22,245.59 L281.01,243.69 L284.81,241.80 L288.61,239.98 L292.41,238.27 L296.20,236.72 L300.00,235.36" fill="none" stroke="#000" stroke-width="17.78" stroke-linecap="butt"/>
  <path d="M0.00,276.93 L3.80,277.25 L7.59,277.86 L11.39,278.75 L15.19,279.90 L18.99,281.27 L22.78,282.84 L26.58,284.55 L30.38,286.38 L34.18,288.27 L37.97,290.18 L41.77,292.05 L45.57,293.84 L49.37,295.51 L53.16,297.01 L56.96,298.31 L60.76,299.37 L64.56,300.16 L68.35,300.67 L72.15,300.88 L75.95,300.79 L79.75,300.40 L83.54,299.72 L87.34,298.76 L91.14,297.56 L94.94,296.13 L98.73,294.53 L102.53,292.78 L106.33,290.93 L110.13,289.03 L113.92,287.13 L117.72,285.27 L121.52,283.50 L125.32,281.87 L129.11,280.42 L132.91,279.18 L136.71,278.19 L140.51,277.46 L144.30,277.03 L148.10,276.89 L151.90,277.06 L155.70,277.52 L159.49,278.27 L163.29,279.29 L167.09,280.56 L170.89,282.03 L174.68,283.68 L178.48,285.46 L182.28,287.32 L186.08,289.22 L189.87,291.12 L193.67,292.96 L197.47,294.70 L201.27,296.29 L205.06,297.69 L208.86,298.87 L212.66,299.80 L216.46,300.45 L220.25,300.81 L224.05,300.88 L227.85,300.63 L231.65,300.09 L235.44,299.27 L239.24,298.19 L243.04,296.87 L246.84,295.35 L250.63,293.67 L254.43,291.86 L258.23,289.98 L262.03,288.08 L265.82,286.19 L269.62,284.37 L273.42,282.67 L277.22,281.12 L281.01,279.77 L284.81,278.65 L288.61,277.79 L292.41,277.21 L296.20,276.92 L300.00,276.93" fill="none" stroke="#000" stroke-width="17.78" stroke-linecap="butt"/>
  <path d="M0.00,325.76 L3.80,327.33 L7.59,329.05 L11.39,330.88 L15.19,332.77 L18.99,334.68 L22.78,336.55 L26.58,338.34 L30.38,340.00 L34.18,341.50 L37.97,342.79 L41.77,343.84 L45.57,344.63 L49.37,345.13 L53.16,345.33 L56.96,345.23 L60.76,344.83 L64.56,344.14 L68.35,343.17 L72.15,341.96 L75.95,340.53 L79.75,338.92 L83.54,337.17 L87.34,335.32 L91.14,333.42 L94.94,331.52 L98.73,329.66 L102.53,327.90 L106.33,326.27 L110.13,324.82 L113.92,323.59 L117.72,322.60 L121.52,321.89 L125.32,321.46 L129.11,321.33 L132.91,321.51 L136.71,321.98 L140.51,322.75 L144.30,323.77 L148.10,325.04 L151.90,326.52 L155.70,328.17 L159.49,329.95 L163.29,331.82 L167.09,333.72 L170.89,335.62 L174.68,337.46 L178.48,339.19 L182.28,340.77 L186.08,342.17 L189.87,343.35 L193.67,344.27 L197.47,344.91 L201.27,345.27 L205.06,345.32 L208.86,345.07 L212.66,344.52 L216.46,343.69 L220.25,342.60 L224.05,341.27 L227.85,339.75 L231.65,338.06 L235.44,336.25 L239.24,334.37 L243.04,332.47 L246.84,330.58 L250.63,328.77 L254.43,327.07 L258.23,325.52 L262.03,324.18 L265.82,323.07 L269.62,322.21 L273.42,321.64 L277.22,321.36 L281.01,321.38 L284.81,321.71 L288.61,322.33 L292.41,323.23 L296.20,324.38 L300.00,325.76" fill="none" stroke="#000" stroke-width="17.78" stroke-linecap="butt"/>
  <path d="M0.00,379.18 L3.80,381.05 L7.59,382.83 L11.39,384.49 L15.19,385.98 L18.99,387.27 L22.78,388.31 L26.58,389.09 L30.38,389.58 L34.18,389.77 L37.97,389.67 L41.77,389.26 L45.57,388.56 L49.37,387.59 L53.16,386.37 L56.96,384.93 L60.76,383.32 L64.56,381.56 L68.35,379.71 L72.15,377.81 L75.95,375.91 L79.75,374.05 L83.54,372.29 L87.34,370.67 L91.14,369.23 L94.94,368.00 L98.73,367.02 L102.53,366.32 L106.33,365.90 L110.13,365.78 L113.92,365.96 L117.72,366.45 L121.52,367.22 L125.32,368.25 L129.11,369.53 L132.91,371.01 L136.71,372.67 L140.51,374.45 L144.30,376.32 L148.10,378.23 L151.90,380.12 L155.70,381.95 L159.49,383.68 L163.29,385.26 L167.09,386.65 L170.89,387.82 L174.68,388.73 L178.48,389.37 L182.28,389.72 L186.08,389.76 L189.87,389.50 L193.67,388.94 L197.47,388.10 L201.27,387.01 L205.06,385.67 L208.86,384.14 L212.66,382.45 L216.46,380.64 L220.25,378.76 L224.05,376.85 L227.85,374.97 L231.65,373.16 L235.44,371.46 L239.24,369.93 L243.04,368.59 L246.84,367.48 L250.63,366.64 L254.43,366.07 L258.23,365.80 L262.03,365.83 L265.82,366.17 L269.62,366.80 L273.42,367.70 L277.22,368.86 L281.01,370.25 L284.81,371.82 L288.61,373.55 L292.41,375.38 L296.20,377.27 L300.00,379.18" fill="none" stroke="#000" stroke-width="17.78" stroke-linecap="butt"/>
</svg>