<?xml version="1.0" encoding="UTF-8"?>
<!-- ctrl-p.art screen archive — GRID — 300x400mm — xTool engraving file -->
<svg width="300mm" height="400mm" viewBox="0 0 300 400" xmlns="http://www.w3.org/2000/svg">
  <rect x="19.73" y="20.18" width="58.05" height="63.64" fill="#000"/>
  <rect x="87.22" y="20.18" width="58.05" height="63.64" fill="#000"/>
  <rect x="154.72" y="20.18" width="58.05" height="63.64" fill="#000"/>
  <rect x="222.22" y="20.18" width="58.05" height="63.64" fill="#000"/>
  <rect x="19.73" y="94.18" width="58.05" height="63.64" fill="#000"/>
  <rect x="87.22" y="94.18" width="58.05" height="63.64" fill="#000"/>
  <rect x="154.72" y="94.18" width="58.05" height="63.64" fill="#000"/>
  <rect x="222.22" y="94.18" width="58.05" height="63.64" fill="#000"/>
  <rect x="19.73" y="168.18" width="58.05" height="63.64" fill="#000"/>
  <rect x="87.22" y="168.18" width="58.05" height="63.64" fill="#000"/>
  <rect x="154.72" y="168.18" width="58.05" height="63.64" fill="#000"/>
  <rect x="222.22" y="168.18" width="58.05" height="63.64" fill="#000"/>
  <rect x="19.73" y="242.18" width="58.05" height="63.64" fill="#000"/>
  <rect x="87.22" y="242.18" width="58.05" height="63.64" fill="#000"/>
  <rect x="154.72" y="242.18" width="58.05" height="63.64" fill="#000"/>
  <rect x="222.22" y="242.18" width="58.05" height="63.64" fill="#000"/>
  <rect x="19.73" y="316.18" width="58.05" height="63.64" fill="#000"/>
  <rect x="87.22" y="316.18" width="58.05" height="63.64" fill="#000"/>
  <rect x="154.72" y="316.18" width="58.05" height="63.64" fill="#000"/>
  <rect x="222.22" y="316.18" width="58.05" height="63.64" fill="#000"/>
</svg>
