<?xml version="1.0" encoding="UTF-8"?>
<!-- ctrl-p.art — NIT-001-C01-P02 — 70x100cm — 1 unit = 1mm -->
<svg width="700mm" height="1000mm" viewBox="0 0 700 1000" xmlns="http://www.w3.org/2000/svg">
  <metadata>
    <ctrl-p xmlns:ctrl="https://ctrl-p.art/schema">
      <node>NIT-001</node>
      <city>Bosa</city>
      <cycle>01</cycle>
      <poster>2 of 5</poster>
      <timestamp>C01D07H16-847</timestamp>
    <quad id="I" screen="RINGS-N" ink="#ba3f3f" inverted="false"/>
    <quad id="II" screen="CIRCLE-N" ink="#ad1a1a" inverted="false"/>
    <quad id="III" screen="CIRCLE-N" ink="#1c2345" inverted="false"/>
    <quad id="IV" screen="RINGS-N" ink="#1c2d4a" inverted="false"/>
    </ctrl-p>
  </metadata>
    <rect width="700" height="1000" fill="#f0efe8"/>
    <g ><svg x="45" y="95" width="300" height="400" viewBox="0 0 300 400"><rect width="300" height="400" fill="#f0efe8"/><circle cx="150" cy="200" r="129.0" fill="none" stroke="#ba3f3f" stroke-width="15.0"/><circle cx="150" cy="200" r="99.0" fill="none" stroke="#ba3f3f" stroke-width="15.0"/><circle cx="150" cy="200" r="69.0" fill="none" stroke="#ba3f3f" stroke-width="15.0"/><circle cx="150" cy="200" r="39.0" fill="none" stroke="#ba3f3f" stroke-width="15.0"/></svg></g><g ><svg x="355" y="95" width="300" height="400" viewBox="0 0 300 400"><rect width="300" height="400" fill="#f0efe8"/>
     <circle cx="150" cy="200" r="126.0" fill="#ad1a1a"/></svg></g><g ><svg x="45" y="505" width="300" height="400" viewBox="0 0 300 400"><rect width="300" height="400" fill="#f0efe8"/>
     <circle cx="150" cy="200" r="126.0" fill="#1c2345"/></svg></g><g ><svg x="355" y="505" width="300" height="400" viewBox="0 0 300 400"><rect width="300" height="400" fill="#f0efe8"/><circle cx="150" cy="200" r="129.0" fill="none" stroke="#1c2d4a" stroke-width="15.0"/><circle cx="150" cy="200" r="99.0" fill="none" stroke="#1c2d4a" stroke-width="15.0"/><circle cx="150" cy="200" r="69.0" fill="none" stroke="#1c2d4a" stroke-width="15.0"/><circle cx="150" cy="200" r="39.0" fill="none" stroke="#1c2d4a" stroke-width="15.0"/></svg></g><rect x="345" y="95" width="10" height="810" fill="#f0efe8"/><rect x="45" y="495" width="610" height="10" fill="#f0efe8"/>
  </svg>