<?xml version="1.0" encoding="UTF-8"?>
<!-- ctrl-p.art — NIT-001-C01-P05 — 70x100cm — 1 unit = 1mm -->
<svg width="700mm" height="1000mm" viewBox="0 0 700 1000" xmlns="http://www.w3.org/2000/svg">
  <metadata>
    <ctrl-p xmlns:ctrl="https://ctrl-p.art/schema">
      <node>NIT-001</node>
      <city>Bosa</city>
      <cycle>01</cycle>
      <poster>5 of 5</poster>
      <timestamp>C01D07H16-669</timestamp>
    <quad id="I" screen="CROSS-I" ink="#ff0000" inverted="true"/>
    <quad id="II" screen="LINES-N" ink="#000000" inverted="false"/>
    <quad id="III" screen="LINES-I" ink="#000000" inverted="true"/>
    <quad id="IV" screen="LINES-N" ink="#000000" inverted="false"/>
    </ctrl-p>
  </metadata>
    <rect width="700" height="1000" fill="#f0efe8"/>
    <g transform="rotate(180,195,295)"><svg x="45" y="95" width="300" height="400" viewBox="0 0 300 400"><rect width="300" height="400" fill="#f0efe8"/>
     <rect x="114.0" y="20.0" width="72.0" height="360.0" fill="#ff0000"/>
     <rect x="15.0" y="160.0" width="270.0" height="80.0" fill="#ff0000"/></svg></g><g ><svg x="355" y="95" width="300" height="400" viewBox="0 0 300 400"><rect width="300" height="400" fill="#f0efe8"/><rect x="0" y="6.0" width="300" height="22.0" fill="#000000"/><rect x="0" y="46.0" width="300" height="22.0" fill="#000000"/><rect x="0" y="86.0" width="300" height="22.0" fill="#000000"/><rect x="0" y="126.0" width="300" height="22.0" fill="#000000"/><rect x="0" y="166.0" width="300" height="22.0" fill="#000000"/><rect x="0" y="206.0" width="300" height="22.0" fill="#000000"/><rect x="0" y="246.0" width="300" height="22.0" fill="#000000"/><rect x="0" y="286.0" width="300" height="22.0" fill="#000000"/><rect x="0" y="326.0" width="300" height="22.0" fill="#000000"/><rect x="0" y="366.0" width="300" height="22.0" fill="#000000"/></svg></g><g transform="rotate(180,195,705)"><svg x="45" y="505" width="300" height="400" viewBox="0 0 300 400"><rect width="300" height="400" fill="#f0efe8"/><rect x="0" y="6.0" width="300" height="22.0" fill="#000000"/><rect x="0" y="46.0" width="300" height="22.0" fill="#000000"/><rect x="0" y="86.0" width="300" height="22.0" fill="#000000"/><rect x="0" y="126.0" width="300" height="22.0" fill="#000000"/><rect x="0" y="166.0" width="300" height="22.0" fill="#000000"/><rect x="0" y="206.0" width="300" height="22.0" fill="#000000"/><rect x="0" y="246.0" width="300" height="22.0" fill="#000000"/><rect x="0" y="286.0" width="300" height="22.0" fill="#000000"/><rect x="0" y="326.0" width="300" height="22.0" fill="#000000"/><rect x="0" y="366.0" width="300" height="22.0" fill="#000000"/></svg></g><g ><svg x="355" y="505" width="300" height="400" viewBox="0 0 300 400"><rect width="300" height="400" fill="#f0efe8"/><rect x="0" y="6.0" width="300" height="22.0" fill="#000000"/><rect x="0" y="46.0" width="300" height="22.0" fill="#000000"/><rect x="0" y="86.0" width="300" height="22.0" fill="#000000"/><rect x="0" y="126.0" width="300" height="22.0" fill="#000000"/><rect x="0" y="166.0" width="300" height="22.0" fill="#000000"/><rect x="0" y="206.0" width="300" height="22.0" fill="#000000"/><rect x="0" y="246.0" width="300" height="22.0" fill="#000000"/><rect x="0" y="286.0" width="300" height="22.0" fill="#000000"/><rect x="0" y="326.0" width="300" height="22.0" fill="#000000"/><rect x="0" y="366.0" width="300" height="22.0" fill="#000000"/></svg></g><rect x="345" y="95" width="10" height="810" fill="#f0efe8"/><rect x="45" y="495" width="610" height="10" fill="#f0efe8"/>
  </svg>