<?xml version="1.0" encoding="UTF-8"?>
<!-- ctrl-p.art — NIT-001-C02-P01 — 70x100cm — 1 unit = 1mm -->
<svg width="700mm" height="1000mm" viewBox="0 0 700 1000" xmlns="http://www.w3.org/2000/svg">
  <metadata>
    <ctrl-p xmlns:ctrl="https://ctrl-p.art/schema">
      <node>NIT-001</node>
      <city>Bosa</city>
      <cycle>02</cycle>
      <poster>1 of 5</poster>
      <timestamp>C02D07H17-571</timestamp>
    <quad id="I" screen="X-N" ink="#ff00ff" inverted="false"/>
    <quad id="II" screen="X-N" ink="#ff00ff" inverted="false"/>
    <quad id="III" screen="X-N" ink="#ff00ff" inverted="false"/>
    <quad id="IV" screen="X-N" ink="#ff00ff" inverted="false"/>
    </ctrl-p>
  </metadata>
    <rect width="700" height="1000" fill="#f0efe8"/>
    <g ><svg x="45" y="95" width="300" height="400" viewBox="0 0 300 400"><rect width="300" height="400" fill="#f0efe8"/>
     <line x1="18.0" y1="16.0" x2="282.0" y2="384.0" stroke="#ff00ff" stroke-width="51.0" stroke-linecap="square"/>
     <line x1="282.0" y1="16.0" x2="18.0" y2="384.0" stroke="#ff00ff" stroke-width="51.0" stroke-linecap="square"/></svg></g><g ><svg x="355" y="95" width="300" height="400" viewBox="0 0 300 400"><rect width="300" height="400" fill="#f0efe8"/>
     <line x1="18.0" y1="16.0" x2="282.0" y2="384.0" stroke="#ff00ff" stroke-width="51.0" stroke-linecap="square"/>
     <line x1="282.0" y1="16.0" x2="18.0" y2="384.0" stroke="#ff00ff" stroke-width="51.0" stroke-linecap="square"/></svg></g><g ><svg x="45" y="505" width="300" height="400" viewBox="0 0 300 400"><rect width="300" height="400" fill="#f0efe8"/>
     <line x1="18.0" y1="16.0" x2="282.0" y2="384.0" stroke="#ff00ff" stroke-width="51.0" stroke-linecap="square"/>
     <line x1="282.0" y1="16.0" x2="18.0" y2="384.0" stroke="#ff00ff" stroke-width="51.0" stroke-linecap="square"/></svg></g><g ><svg x="355" y="505" width="300" height="400" viewBox="0 0 300 400"><rect width="300" height="400" fill="#f0efe8"/>
     <line x1="18.0" y1="16.0" x2="282.0" y2="384.0" stroke="#ff00ff" stroke-width="51.0" stroke-linecap="square"/>
     <line x1="282.0" y1="16.0" x2="18.0" y2="384.0" stroke="#ff00ff" stroke-width="51.0" stroke-linecap="square"/></svg></g><rect x="345" y="95" width="10" height="810" fill="#f0efe8"/><rect x="45" y="495" width="610" height="10" fill="#f0efe8"/>
  </svg>