<?xml version="1.0" encoding="UTF-8"?>
<!-- ctrl-p.art — NIT-001-C01-P01 — 70x100cm — 1 unit = 1mm -->
<svg width="700mm" height="1000mm" viewBox="0 0 700 1000" xmlns="http://www.w3.org/2000/svg">
  <metadata>
    <ctrl-p xmlns:ctrl="https://ctrl-p.art/schema">
      <node>NIT-001</node>
      <city>Bosa</city>
      <cycle>01</cycle>
      <poster>1 of 5</poster>
      <timestamp>C01D07H16-591</timestamp>
    <quad id="I" screen="DOTS-I" ink="#519659" inverted="true"/>
    <quad id="II" screen="CIRCLE-N" ink="#417cba" inverted="false"/>
    <quad id="III" screen="CIRCLE-N" ink="#519c5b" inverted="false"/>
    <quad id="IV" screen="DOTS-N" ink="#3c91c9" inverted="false"/>
    </ctrl-p>
  </metadata>
    <rect width="700" height="1000" fill="#f0efe8"/>
    <g transform="rotate(180,195,295)"><svg x="45" y="95" width="300" height="400" viewBox="0 0 300 400"><rect width="300" height="400" fill="#f0efe8"/><circle cx="30.0" cy="28.6" r="8.0" fill="#519659"/><circle cx="90.0" cy="28.6" r="8.4" fill="#519659"/><circle cx="150.0" cy="28.6" r="8.8" fill="#519659"/><circle cx="210.0" cy="28.6" r="9.3" fill="#519659"/><circle cx="270.0" cy="28.6" r="9.7" fill="#519659"/><circle cx="30.0" cy="85.7" r="10.1" fill="#519659"/><circle cx="90.0" cy="85.7" r="10.5" fill="#519659"/><circle cx="150.0" cy="85.7" r="11.0" fill="#519659"/><circle cx="210.0" cy="85.7" r="11.4" fill="#519659"/><circle cx="270.0" cy="85.7" r="11.8" fill="#519659"/><circle cx="30.0" cy="142.9" r="12.2" fill="#519659"/><circle cx="90.0" cy="142.9" r="12.7" fill="#519659"/><circle cx="150.0" cy="142.9" r="13.1" fill="#519659"/><circle cx="210.0" cy="142.9" r="13.5" fill="#519659"/><circle cx="270.0" cy="142.9" r="13.9" fill="#519659"/><circle cx="30.0" cy="200.0" r="14.4" fill="#519659"/><circle cx="90.0" cy="200.0" r="14.8" fill="#519659"/><circle cx="150.0" cy="200.0" r="15.2" fill="#519659"/><circle cx="210.0" cy="200.0" r="15.6" fill="#519659"/><circle cx="270.0" cy="200.0" r="16.1" fill="#519659"/><circle cx="30.0" cy="257.1" r="16.5" fill="#519659"/><circle cx="90.0" cy="257.1" r="16.9" fill="#519659"/><circle cx="150.0" cy="257.1" r="17.3" fill="#519659"/><circle cx="210.0" cy="257.1" r="17.8" fill="#519659"/><circle cx="270.0" cy="257.1" r="18.2" fill="#519659"/><circle cx="30.0" cy="314.3" r="18.6" fill="#519659"/><circle cx="90.0" cy="314.3" r="19.0" fill="#519659"/><circle cx="150.0" cy="314.3" r="19.5" fill="#519659"/><circle cx="210.0" cy="314.3" r="19.9" fill="#519659"/><circle cx="270.0" cy="314.3" r="20.3" fill="#519659"/><circle cx="30.0" cy="371.4" r="20.7" fill="#519659"/><circle cx="90.0" cy="371.4" r="21.2" fill="#519659"/><circle cx="150.0" cy="371.4" r="21.6" fill="#519659"/><circle cx="210.0" cy="371.4" r="22.0" fill="#519659"/><circle cx="270.0" cy="371.4" r="22.4" fill="#519659"/></svg></g><g ><svg x="355" y="95" width="300" height="400" viewBox="0 0 300 400"><rect width="300" height="400" fill="#f0efe8"/>
     <circle cx="150" cy="200" r="126.0" fill="#417cba"/></svg></g><g ><svg x="45" y="505" width="300" height="400" viewBox="0 0 300 400"><rect width="300" height="400" fill="#f0efe8"/>
     <circle cx="150" cy="200" r="126.0" fill="#519c5b"/></svg></g><g ><svg x="355" y="505" width="300" height="400" viewBox="0 0 300 400"><rect width="300" height="400" fill="#f0efe8"/><circle cx="30.0" cy="28.6" r="8.0" fill="#3c91c9"/><circle cx="90.0" cy="28.6" r="8.4" fill="#3c91c9"/><circle cx="150.0" cy="28.6" r="8.8" fill="#3c91c9"/><circle cx="210.0" cy="28.6" r="9.3" fill="#3c91c9"/><circle cx="270.0" cy="28.6" r="9.7" fill="#3c91c9"/><circle cx="30.0" cy="85.7" r="10.1" fill="#3c91c9"/><circle cx="90.0" cy="85.7" r="10.5" fill="#3c91c9"/><circle cx="150.0" cy="85.7" r="11.0" fill="#3c91c9"/><circle cx="210.0" cy="85.7" r="11.4" fill="#3c91c9"/><circle cx="270.0" cy="85.7" r="11.8" fill="#3c91c9"/><circle cx="30.0" cy="142.9" r="12.2" fill="#3c91c9"/><circle cx="90.0" cy="142.9" r="12.7" fill="#3c91c9"/><circle cx="150.0" cy="142.9" r="13.1" fill="#3c91c9"/><circle cx="210.0" cy="142.9" r="13.5" fill="#3c91c9"/><circle cx="270.0" cy="142.9" r="13.9" fill="#3c91c9"/><circle cx="30.0" cy="200.0" r="14.4" fill="#3c91c9"/><circle cx="90.0" cy="200.0" r="14.8" fill="#3c91c9"/><circle cx="150.0" cy="200.0" r="15.2" fill="#3c91c9"/><circle cx="210.0" cy="200.0" r="15.6" fill="#3c91c9"/><circle cx="270.0" cy="200.0" r="16.1" fill="#3c91c9"/><circle cx="30.0" cy="257.1" r="16.5" fill="#3c91c9"/><circle cx="90.0" cy="257.1" r="16.9" fill="#3c91c9"/><circle cx="150.0" cy="257.1" r="17.3" fill="#3c91c9"/><circle cx="210.0" cy="257.1" r="17.8" fill="#3c91c9"/><circle cx="270.0" cy="257.1" r="18.2" fill="#3c91c9"/><circle cx="30.0" cy="314.3" r="18.6" fill="#3c91c9"/><circle cx="90.0" cy="314.3" r="19.0" fill="#3c91c9"/><circle cx="150.0" cy="314.3" r="19.5" fill="#3c91c9"/><circle cx="210.0" cy="314.3" r="19.9" fill="#3c91c9"/><circle cx="270.0" cy="314.3" r="20.3" fill="#3c91c9"/><circle cx="30.0" cy="371.4" r="20.7" fill="#3c91c9"/><circle cx="90.0" cy="371.4" r="21.2" fill="#3c91c9"/><circle cx="150.0" cy="371.4" r="21.6" fill="#3c91c9"/><circle cx="210.0" cy="371.4" r="22.0" fill="#3c91c9"/><circle cx="270.0" cy="371.4" r="22.4" fill="#3c91c9"/></svg></g><rect x="345" y="95" width="10" height="810" fill="#f0efe8"/><rect x="45" y="495" width="610" height="10" fill="#f0efe8"/>
  </svg>