<?xml version="1.0" encoding="UTF-8"?>
<!-- ctrl-p.art — NIT-001-C01-P03 — 70x100cm — 1 unit = 1mm -->
<svg width="700mm" height="1000mm" viewBox="0 0 700 1000" xmlns="http://www.w3.org/2000/svg">
  <metadata>
    <ctrl-p xmlns:ctrl="https://ctrl-p.art/schema">
      <node>NIT-001</node>
      <city>Bosa</city>
      <cycle>01</cycle>
      <poster>3 of 5</poster>
      <timestamp>C01D07H16-346</timestamp>
    <quad id="I" screen="GRID-I" ink="#000000" inverted="true"/>
    <quad id="II" screen="GRID-N" ink="#000000" inverted="false"/>
    <quad id="III" screen="GRID-N" ink="#000000" inverted="false"/>
    <quad id="IV" screen="GRID-N" ink="#000000" inverted="false"/>
    </ctrl-p>
  </metadata>
    <rect width="700" height="1000" fill="#f0efe8"/>
    <g transform="rotate(180,195,295)"><svg x="45" y="95" width="300" height="400" viewBox="0 0 300 400"><rect width="300" height="400" fill="#f0efe8"/><rect x="19.7" y="20.2" width="58.0" height="63.6" fill="#000000"/><rect x="87.2" y="20.2" width="58.0" height="63.6" fill="#000000"/><rect x="154.7" y="20.2" width="58.0" height="63.6" fill="#000000"/><rect x="222.2" y="20.2" width="58.0" height="63.6" fill="#000000"/><rect x="19.7" y="94.2" width="58.0" height="63.6" fill="#000000"/><rect x="87.2" y="94.2" width="58.0" height="63.6" fill="#000000"/><rect x="154.7" y="94.2" width="58.0" height="63.6" fill="#000000"/><rect x="222.2" y="94.2" width="58.0" height="63.6" fill="#000000"/><rect x="19.7" y="168.2" width="58.0" height="63.6" fill="#000000"/><rect x="87.2" y="168.2" width="58.0" height="63.6" fill="#000000"/><rect x="154.7" y="168.2" width="58.0" height="63.6" fill="#000000"/><rect x="222.2" y="168.2" width="58.0" height="63.6" fill="#000000"/><rect x="19.7" y="242.2" width="58.0" height="63.6" fill="#000000"/><rect x="87.2" y="242.2" width="58.0" height="63.6" fill="#000000"/><rect x="154.7" y="242.2" width="58.0" height="63.6" fill="#000000"/><rect x="222.2" y="242.2" width="58.0" height="63.6" fill="#000000"/><rect x="19.7" y="316.2" width="58.0" height="63.6" fill="#000000"/><rect x="87.2" y="316.2" width="58.0" height="63.6" fill="#000000"/><rect x="154.7" y="316.2" width="58.0" height="63.6" fill="#000000"/><rect x="222.2" y="316.2" width="58.0" height="63.6" fill="#000000"/></svg></g><g ><svg x="355" y="95" width="300" height="400" viewBox="0 0 300 400"><rect width="300" height="400" fill="#f0efe8"/><rect x="19.7" y="20.2" width="58.0" height="63.6" fill="#000000"/><rect x="87.2" y="20.2" width="58.0" height="63.6" fill="#000000"/><rect x="154.7" y="20.2" width="58.0" height="63.6" fill="#000000"/><rect x="222.2" y="20.2" width="58.0" height="63.6" fill="#000000"/><rect x="19.7" y="94.2" width="58.0" height="63.6" fill="#000000"/><rect x="87.2" y="94.2" width="58.0" height="63.6" fill="#000000"/><rect x="154.7" y="94.2" width="58.0" height="63.6" fill="#000000"/><rect x="222.2" y="94.2" width="58.0" height="63.6" fill="#000000"/><rect x="19.7" y="168.2" width="58.0" height="63.6" fill="#000000"/><rect x="87.2" y="168.2" width="58.0" height="63.6" fill="#000000"/><rect x="154.7" y="168.2" width="58.0" height="63.6" fill="#000000"/><rect x="222.2" y="168.2" width="58.0" height="63.6" fill="#000000"/><rect x="19.7" y="242.2" width="58.0" height="63.6" fill="#000000"/><rect x="87.2" y="242.2" width="58.0" height="63.6" fill="#000000"/><rect x="154.7" y="242.2" width="58.0" height="63.6" fill="#000000"/><rect x="222.2" y="242.2" width="58.0" height="63.6" fill="#000000"/><rect x="19.7" y="316.2" width="58.0" height="63.6" fill="#000000"/><rect x="87.2" y="316.2" width="58.0" height="63.6" fill="#000000"/><rect x="154.7" y="316.2" width="58.0" height="63.6" fill="#000000"/><rect x="222.2" y="316.2" width="58.0" height="63.6" fill="#000000"/></svg></g><g ><svg x="45" y="505" width="300" height="400" viewBox="0 0 300 400"><rect width="300" height="400" fill="#f0efe8"/><rect x="19.7" y="20.2" width="58.0" height="63.6" fill="#000000"/><rect x="87.2" y="20.2" width="58.0" height="63.6" fill="#000000"/><rect x="154.7" y="20.2" width="58.0" height="63.6" fill="#000000"/><rect x="222.2" y="20.2" width="58.0" height="63.6" fill="#000000"/><rect x="19.7" y="94.2" width="58.0" height="63.6" fill="#000000"/><rect x="87.2" y="94.2" width="58.0" height="63.6" fill="#000000"/><rect x="154.7" y="94.2" width="58.0" height="63.6" fill="#000000"/><rect x="222.2" y="94.2" width="58.0" height="63.6" fill="#000000"/><rect x="19.7" y="168.2" width="58.0" height="63.6" fill="#000000"/><rect x="87.2" y="168.2" width="58.0" height="63.6" fill="#000000"/><rect x="154.7" y="168.2" width="58.0" height="63.6" fill="#000000"/><rect x="222.2" y="168.2" width="58.0" height="63.6" fill="#000000"/><rect x="19.7" y="242.2" width="58.0" height="63.6" fill="#000000"/><rect x="87.2" y="242.2" width="58.0" height="63.6" fill="#000000"/><rect x="154.7" y="242.2" width="58.0" height="63.6" fill="#000000"/><rect x="222.2" y="242.2" width="58.0" height="63.6" fill="#000000"/><rect x="19.7" y="316.2" width="58.0" height="63.6" fill="#000000"/><rect x="87.2" y="316.2" width="58.0" height="63.6" fill="#000000"/><rect x="154.7" y="316.2" width="58.0" height="63.6" fill="#000000"/><rect x="222.2" y="316.2" width="58.0" height="63.6" fill="#000000"/></svg></g><g ><svg x="355" y="505" width="300" height="400" viewBox="0 0 300 400"><rect width="300" height="400" fill="#f0efe8"/><rect x="19.7" y="20.2" width="58.0" height="63.6" fill="#000000"/><rect x="87.2" y="20.2" width="58.0" height="63.6" fill="#000000"/><rect x="154.7" y="20.2" width="58.0" height="63.6" fill="#000000"/><rect x="222.2" y="20.2" width="58.0" height="63.6" fill="#000000"/><rect x="19.7" y="94.2" width="58.0" height="63.6" fill="#000000"/><rect x="87.2" y="94.2" width="58.0" height="63.6" fill="#000000"/><rect x="154.7" y="94.2" width="58.0" height="63.6" fill="#000000"/><rect x="222.2" y="94.2" width="58.0" height="63.6" fill="#000000"/><rect x="19.7" y="168.2" width="58.0" height="63.6" fill="#000000"/><rect x="87.2" y="168.2" width="58.0" height="63.6" fill="#000000"/><rect x="154.7" y="168.2" width="58.0" height="63.6" fill="#000000"/><rect x="222.2" y="168.2" width="58.0" height="63.6" fill="#000000"/><rect x="19.7" y="242.2" width="58.0" height="63.6" fill="#000000"/><rect x="87.2" y="242.2" width="58.0" height="63.6" fill="#000000"/><rect x="154.7" y="242.2" width="58.0" height="63.6" fill="#000000"/><rect x="222.2" y="242.2" width="58.0" height="63.6" fill="#000000"/><rect x="19.7" y="316.2" width="58.0" height="63.6" fill="#000000"/><rect x="87.2" y="316.2" width="58.0" height="63.6" fill="#000000"/><rect x="154.7" y="316.2" width="58.0" height="63.6" fill="#000000"/><rect x="222.2" y="316.2" width="58.0" height="63.6" fill="#000000"/></svg></g><rect x="345" y="95" width="10" height="810" fill="#f0efe8"/><rect x="45" y="495" width="610" height="10" fill="#f0efe8"/>
  </svg>